# xmcd
#
# Track frame offsets:
#	150
#	15377
#	28692
#	38685
#	51390
#	73182
#	86517
#	100867
#	128367
#	144240
#
# Disc length: 2213
#
# Revision: 2
# Processed by: cddbd v1.5.1PL0 Copyright (c) Steve Scherf et al.
# Submitted via: audiograbber 1.81.02
# Normalized: r1:TDELIM( - )
#
DISCID=7808a30a
DTITLE=Various Artist - Rolling Stone Blues
DYEAR=2002
DGENRE=Blues
TTITLE0=The Fabulous Thunderbirds - Tuff Enough
TTITLE1=Eric Clapton - Blues Before Sunrise
TTITLE2=John Lee Hooker - Dimples
TTITLE3=Albert King - Born Under a Bad Sign
TTITLE4=Susan Tedeschi - It Hurt So Bad
TTITLE5=Fleetwood Mac - Shake Your Moneymaker
TTITLE6=Bonnie Raitt - Love Me Like A Man
TTITLE7=Kenny Wayne Shepherd - Shame, Shame, Shame
TTITLE8=The Robert Cray Band - Phone Booth
TTITLE9=George Thorogood and The Destroyes - Bad To The Bone
EXTD=
EXTT0=
EXTT1=
EXTT2=
EXTT3=
EXTT4=
EXTT5=
EXTT6=
EXTT7=
EXTT8=
EXTT9=
PLAYORDER=
